<?xml version="1.0" encoding="UTF-8"?>
<svg version="1.1" xmlns="http://www.w3.org/2000/svg" width="418" height="426">
<path d="M0 0 C1.2946727 -0.00508782 2.58934541 -0.01017564 3.92325062 -0.01541764 C7.50610376 -0.02926407 11.08894679 -0.03689026 14.67181981 -0.04339063 C17.74763799 -0.04978095 20.82343976 -0.05984814 23.89924765 -0.06995129 C34.02854119 -0.10320196 44.15784471 -0.12478084 54.28717485 -0.14315113 C56.92609689 -0.14795043 59.56501853 -0.1529332 62.20394015 -0.15795636 C78.60782517 -0.18892677 95.01171381 -0.21559805 111.41561985 -0.23237514 C115.21148243 -0.23632431 119.00734495 -0.24032736 122.8032074 -0.24440002 C124.21828436 -0.24591257 124.21828436 -0.24591257 125.66194873 -0.24745566 C140.93899475 -0.26445719 156.21587865 -0.30556486 171.49284554 -0.35642301 C187.19352653 -0.40826002 202.89412423 -0.43732516 218.59489006 -0.44457203 C227.40382659 -0.44922601 236.2124974 -0.46389074 245.02134895 -0.50431633 C252.52414016 -0.53870759 260.0266176 -0.55251887 267.52948309 -0.53989219 C271.35319886 -0.53408691 275.17625178 -0.53777696 278.99986649 -0.56806183 C283.15734243 -0.60072048 287.31338452 -0.58619889 291.47094727 -0.56762695 C292.66271421 -0.58442188 293.85448115 -0.60121681 295.08236223 -0.61852068 C305.36228129 -0.50436079 315.46440992 2.41243121 323.24241638 9.47312927 C332.52993447 20.05384609 332.76242871 30.7363529 332.17991638 44.16062927 C331.7750957 49.47875307 331.06078703 54.7577429 330.32905579 60.03923035 C329.7305112 64.36670063 329.17294931 68.69955509 328.60960388 73.03172302 C328.49102524 73.93634277 328.37244659 74.84096252 328.25027466 75.772995 C327.02022353 85.22697873 325.96480569 94.69856846 324.92997742 104.1756134 C324.61838529 107.02676355 324.30368725 109.87755439 323.98802185 112.72825623 C323.10411716 120.7179604 322.22615668 128.70813067 321.37533569 136.70143127 C321.04280674 139.80150682 320.70008684 142.90039673 320.35475159 145.99906921 C320.20010379 147.40754332 320.04987821 148.81651221 319.90473938 150.22599792 C318.20082439 166.74600404 314.35178086 181.21906057 301.17991638 192.16062927 C288.49021021 201.68911889 274.08214523 201.6059055 258.91477966 201.56468201 C257.0030579 201.57039509 255.09133954 201.57736295 253.17962646 201.58547974 C248.02508215 201.6033133 242.87070894 201.60226248 237.71614313 201.59653735 C233.40409378 201.59343419 229.09207677 201.59954977 224.78003204 201.6055761 C214.6102392 201.61958468 204.44053045 201.61808794 194.27073669 201.60667419 C183.78851743 201.59516968 173.30655333 201.60931617 162.82436764 201.63607067 C153.80664272 201.65822308 144.78899794 201.66486687 135.77124774 201.65899426 C130.39273064 201.65562565 125.01437747 201.65803472 119.63588333 201.67524529 C114.58450332 201.69070719 109.53350267 201.68676721 104.48213768 201.66794014 C102.63062678 201.66425358 100.77908778 201.66736467 98.92760277 201.67782593 C96.39702273 201.69103177 93.86769979 201.67949316 91.33717346 201.66183472 C90.60769599 201.67143972 89.87821852 201.68104473 89.12663567 201.6909408 C83.63782062 201.61232111 80.61198351 200.1667768 76.17991638 197.16062927 C71.89851131 192.54121853 70.75583785 188.73990664 70.83616638 182.57469177 C71.64401382 176.90139955 74.9086227 173.15223834 79.30491638 169.72312927 C83.8962892 167.22781796 87.61408385 167.01898148 92.71343994 167.03605652 C93.48764477 167.03464637 94.2618496 167.03323622 95.05951518 167.03178334 C97.66192288 167.02812423 100.26427631 167.0314695 102.86668396 167.03465271 C104.72928917 167.03325822 106.59189406 167.03135908 108.45449829 167.0289917 C112.46998156 167.02449135 116.4854546 167.02263854 120.50094032 167.0225296 C126.84998802 167.0213905 133.19897741 167.00856136 139.54800415 166.9929657 C140.61897349 166.99039284 141.68994282 166.98781999 142.79336578 166.98516917 C144.9835339 166.97990252 147.17370199 166.97461704 149.36387002 166.96931314 C164.14769461 166.93418459 178.931447 166.90765245 193.71531677 166.91014099 C203.68401019 166.91172881 213.65250516 166.89571185 223.62113494 166.85943437 C228.89752744 166.84095995 234.17358856 166.83164448 239.45000648 166.84391022 C244.41352056 166.85533657 249.37644111 166.84366736 254.33987617 166.81427574 C256.16114987 166.80762862 257.98247777 166.80951317 259.80373001 166.82057381 C262.29167797 166.83442923 264.7776176 166.8175717 267.26544189 166.7931366 C267.98519866 166.80449198 268.70495543 166.81584735 269.44652301 166.82754683 C275.06792622 166.7202796 277.36815114 164.9985544 281.17991638 161.16062927 C282.71713801 158.08618601 282.82393054 154.75312622 283.23069763 151.37547302 C283.32937134 150.58037323 283.42804504 149.78527344 283.52970886 148.96607971 C283.85418793 146.34385674 284.17334752 143.7210156 284.49241638 141.09812927 C284.71730545 139.27118926 284.94248735 137.44428527 285.16795349 135.61741638 C285.84362655 130.13242912 286.5122128 124.64659139 287.17991638 119.16062927 C287.36670603 117.62969756 287.55355143 116.09877264 287.74046326 114.56785583 C288.40456786 109.12512328 289.06792712 103.68231372 289.72117615 98.23826599 C290.47449297 91.96205186 291.23567634 85.68719477 292.02804565 79.41577148 C292.40756488 76.40897511 292.78262324 73.40162893 293.15742493 70.39424133 C293.3359852 68.97153847 293.51667351 67.54910071 293.69972229 66.12696838 C296.02815473 52.70450677 296.02815473 52.70450677 293.61741638 39.72312927 C289.26348668 35.14592112 284.91583414 34.00787228 278.77506924 33.77751923 C276.61448026 33.7584732 274.45370842 33.75586475 272.2930603 33.76622009 C271.09891543 33.76012899 269.90477057 33.75403789 268.67443949 33.7477622 C265.37240979 33.73402176 262.07087889 33.7336722 258.76885831 33.73913717 C255.20302316 33.74181224 251.63725112 33.72726689 248.07144165 33.71504211 C241.0912952 33.69400812 234.11123184 33.68944601 227.13105743 33.69123 C221.45811497 33.6925383 215.78519841 33.68873002 210.11226082 33.68130493 C208.47740589 33.67920572 206.84255096 33.67710812 205.20769602 33.67501211 C203.98710399 33.67344682 203.98710399 33.67344682 202.74185354 33.67184991 C187.35992022 33.65295676 171.97803461 33.6539953 156.5960945 33.66081923 C142.52289003 33.66639777 128.44986742 33.64555445 114.37670546 33.61245877 C99.92358059 33.57873337 85.47054288 33.56355174 71.01737791 33.56817579 C62.90403445 33.57042117 54.79085921 33.565167 46.67754936 33.5402832 C39.77253402 33.51928525 32.86777921 33.51566326 25.96275323 33.53458279 C22.43984818 33.54374898 18.91742912 33.54485742 15.39456177 33.52422714 C11.57606849 33.50211272 7.75830418 33.51871306 3.93978882 33.53916931 C2.8258838 33.52665146 1.71197879 33.51413362 0.56431907 33.50123644 C-5.92813281 33.53816959 -5.92813281 33.53816959 -11.47191525 36.57230377 C-14.76329165 40.20030319 -15.9678066 42.78575573 -16.53102112 47.60594177 C-16.63930237 48.50079285 -16.74758362 49.39564392 -16.85914612 50.31761169 C-16.97000549 51.2970575 -17.08086487 52.2765033 -17.19508362 53.28562927 C-17.31883362 54.32243835 -17.44258362 55.35924744 -17.57008362 56.42747498 C-17.99495756 60.00427836 -18.40817104 63.58231078 -18.82008362 67.16062927 C-19.14482363 69.96410556 -19.47065757 72.76745417 -19.79664612 75.57078552 C-19.88009277 76.28926163 -19.96353943 77.00773773 -20.04951477 77.74798584 C-20.72601056 83.56367128 -21.41548562 89.3777609 -22.1131134 95.19094849 C-22.61108827 99.3528285 -23.07851073 103.51703629 -23.53102112 107.68406677 C-25.59605683 125.61558723 -25.59605683 125.61558723 -31.82008362 131.16062927 C-36.78455023 135.07994502 -41.96737959 135.85575855 -48.19898987 135.61375427 C-52.26527735 134.91078952 -55.05967348 133.19858065 -57.82008362 130.16062927 C-64.55910411 120.37023397 -60.03231608 104.92111583 -58.63258362 93.72312927 C-58.40525318 91.87346288 -58.17812407 90.02377172 -57.95118713 88.17405701 C-57.36668861 83.43392686 -56.77044235 78.69534274 -56.17152405 73.95701599 C-55.82862256 71.22857305 -55.49174908 68.49945802 -55.15699768 65.77000427 C-54.638212 61.54545918 -54.10558527 57.32289325 -53.56163025 53.10151672 C-53.3616097 51.53686736 -53.16555452 49.97170509 -52.97380066 48.40602112 C-51.09273185 33.13384418 -47.72100574 20.67772324 -35.82008362 10.16062927 C-24.07569585 1.45779373 -14.3584386 0.01403134 0 0 Z " fill="#00ABB8" transform="translate(74.82008361816406,130.83937072753906)"/>
<path d="M0 0 C0.83898496 -0.00523668 1.67796992 -0.01047336 2.54237866 -0.01586872 C5.35815479 -0.03088943 8.17374952 -0.03157433 10.98956299 -0.03224182 C13.00670682 -0.03986198 15.02384775 -0.04828923 17.04098511 -0.0574646 C22.52458717 -0.07943226 28.00813346 -0.08821171 33.49177456 -0.09329104 C36.91777395 -0.09693233 40.34375869 -0.10317124 43.7697525 -0.11029243 C55.72226097 -0.13479605 67.674726 -0.14784054 79.6272583 -0.15138245 C90.76764872 -0.15501709 101.90776353 -0.18490517 113.04806972 -0.22678703 C122.61253706 -0.26148361 132.17691306 -0.27693079 141.74144292 -0.27762848 C147.45385008 -0.27842159 153.16597666 -0.28717591 158.87831879 -0.31562614 C164.25299647 -0.34179525 169.62716073 -0.34401817 175.00187302 -0.3279705 C176.97229761 -0.32615504 178.94275164 -0.33285553 180.91311264 -0.34878922 C183.60820848 -0.36925118 186.30150823 -0.35869773 188.99658203 -0.34057617 C189.77208617 -0.35377614 190.54759031 -0.36697611 191.34659457 -0.38057607 C197.2329621 -0.29048477 201.15586072 1.63647615 205.7522583 5.27415466 C208.99892881 8.76432546 210.03625391 11.48599133 210.3147583 16.14915466 C210.0321597 22.85077866 207.00377767 27.13521126 202.2522583 31.64915466 C197.24842633 34.90164545 193.01870136 35.56332549 187.12767029 35.5146637 C185.98807632 35.51722697 185.98807632 35.51722697 184.82546026 35.51984203 C182.28428017 35.52313161 179.74336517 35.51214206 177.20220947 35.50120544 C175.37883511 35.50064122 173.55546028 35.50095812 171.73208618 35.50209045 C166.78415316 35.50266451 161.83631702 35.49090157 156.88840652 35.47694254 C151.71675211 35.46444405 146.54509552 35.46326537 141.37342834 35.46089172 C131.58105847 35.45467437 121.78873323 35.43826007 111.99638301 35.41819274 C100.84775507 35.39584172 89.69912501 35.38484231 78.55048025 35.37480187 C55.61771485 35.35389409 32.68498908 35.31871311 9.7522583 35.27415466 C9.69654097 35.84378591 9.64082363 36.41341715 9.58341789 37.00030994 C9.32700836 39.61426071 9.0686995 42.22802054 8.81036377 44.84178162 C8.72276291 45.73772285 8.63516205 46.63366409 8.54490662 47.55675507 C7.85086071 54.55820605 6.93739261 61.50613929 5.8772583 68.46165466 C4.33720144 78.88309208 2.98715361 89.3134091 1.7522583 99.77415466 C0.41485366 111.08777326 -1.07605685 122.36427629 -2.74554443 133.63475037 C-3.68948988 140.0925212 -4.53659747 146.55283167 -5.28289795 153.03587341 C-5.36921478 153.77926971 -5.45553162 154.52266602 -5.54446411 155.28858948 C-5.96436673 158.9159624 -6.37348896 162.54403409 -6.76531982 166.17454529 C-8.88833941 185.17123569 -8.88833941 185.17123569 -16.2477417 191.27415466 C-16.9283667 191.85165466 -17.6089917 192.42915466 -18.3102417 193.02415466 C-22.71399762 195.86528752 -28.17350363 195.99785747 -33.2477417 195.27415466 C-37.90434245 193.47757686 -40.63088301 191.27655003 -43.2477417 187.02415466 C-45.65691289 177.98976269 -43.68768604 168.52071398 -42.4977417 159.39915466 C-42.31529468 157.97030079 -42.13300547 156.54142676 -41.9508667 155.11253357 C-40.67260541 145.16915176 -39.24725214 135.25088946 -37.746521 125.33860779 C-36.13877541 114.68797648 -34.72019134 104.01549972 -33.31414795 93.33665466 C-32.5649073 87.64721859 -31.80056573 81.96006967 -31.02508545 76.27415466 C-30.9206311 75.50692581 -30.81617676 74.73969696 -30.70855713 73.94921875 C-30.2822398 70.81819064 -29.85588232 67.68717274 -29.42626953 64.55659485 C-28.26301642 56.07622946 -27.14895675 47.59566637 -26.18133545 39.09056091 C-26.01090705 37.62163138 -25.84033685 36.15271829 -25.6696167 34.68382263 C-25.35218062 31.94867031 -25.05412922 29.21236813 -24.76727295 26.47386169 C-23.86332577 18.6495825 -22.82191757 12.33429304 -17.4664917 6.25071716 C-16.8993042 5.80470154 -16.3321167 5.35868591 -15.7477417 4.89915466 C-15.1805542 4.43767029 -14.6133667 3.97618591 -14.0289917 3.50071716 C-9.38604575 0.30360087 -5.58005968 -0.01717982 0 0 Z " fill="#00ABB8" transform="translate(114.24774169921875,212.72584533691406)"/>
<path d="M0 0 C10.86216607 9.24994052 17.92067322 20.78717988 20.35546875 34.96875 C21.32227423 50.23988206 20.02570025 64.94869781 17.35546875 79.96875 C8.11546875 79.96875 -1.12453125 79.96875 -10.64453125 79.96875 C-10.64453125 66.66319444 -10.64453125 66.66319444 -9.64453125 60.09375 C-7.87095377 47.08385293 -7.05570345 36.11607268 -15.26953125 25.21875 C-21.62652095 18.29990515 -31.12221005 15.35849037 -40.2421875 14.71484375 C-54.61983748 14.13938793 -67.34639034 17.80217376 -78.39453125 27.34375 C-86.73107458 37.06971721 -91.24054503 46.72658773 -94.59765625 59.109375 C-95.79967573 63.54070053 -97.09097496 67.94149294 -98.39453125 72.34375 C-99.13703125 74.86 -99.87953125 77.37625 -100.64453125 79.96875 C-110.21453125 79.96875 -119.78453125 79.96875 -129.64453125 79.96875 C-123.24020266 50.08188327 -115.65267038 18.85869485 -88.73876953 0.68164062 C-80.52785258 -4.49912869 -72.08273772 -8.61153984 -62.64453125 -11.03125 C-61.83757812 -11.25425781 -61.030625 -11.47726562 -60.19921875 -11.70703125 C-39.57065148 -16.46000835 -16.92497687 -12.99998223 0 0 Z " fill="#00ABB8" transform="translate(268.64453125,21.03125)"/>
<path d="M0 0 C5.18935692 3.01385965 8.92754709 6.95547975 11.625 12.3125 C12.70611675 20.37704659 12.43575911 28.51527575 7.625 35.3125 C2.30631788 41.32543488 -3.31047275 44.70338794 -11.265625 45.66015625 C-18.32740971 46.00614821 -23.01769705 45.00824738 -28.375 40.3125 C-33.16989488 35.51760512 -35.07603981 30.00314171 -35.8125 23.375 C-35.49238553 15.96871527 -31.50329899 9.44079899 -26.375 4.3125 C-18.44365438 -1.42606183 -9.42111155 -4.45035365 0 0 Z " fill="#00ABB8" transform="translate(184.375,361.6875)"/>
<path d="M0 0 C5.05340874 2.93658044 8.46730408 6.99710816 11.0625 12.1875 C12.66400836 20.51534347 12.39820439 27.26475499 7.6875 34.4375 C7.130625 35.324375 6.57375 36.21125 6 37.125 C0.51031757 42.61468243 -6.35520601 45.56416423 -14.0625 45.75 C-20.71645803 45.66983183 -24.11656103 44.49996588 -28.99609375 39.82421875 C-34.51862019 33.85141437 -35.80631228 28.2203509 -35.62109375 20.1796875 C-34.86090752 13.42461495 -31.17657628 8.51879264 -26.28515625 3.98046875 C-18.68714691 -1.96252866 -9.04117796 -3.98571013 0 0 Z " fill="#00ABB8" transform="translate(260.3125,362.5625)"/>
</svg>
